<svg xmlns="http://www.w3.org/2000/svg" width="958.97" height="301.33" viewBox="0 0 253.73 79.73"><path d="M224.29 8.24c-8.1.08-15.08 7-14.62 15.98l1.9-1.8 1.72 1.82-3.19 3.03c.3 1.24.72 2.5 1.31 3.79-7.18-3.06-8.98-5.38-15-12.63-1.26-1.5-2.54-2.07-3.7-2.16l-.42-.01c-.99.03-1.9.43-2.6 1.08-.8.73-1.3 1.78-1.3 2.9-.02 1.13.45 2.42 1.81 3.72 3.3 3.15 7.08 6.33 9.95 9.55a20.68 20.68 0 013.7 5.4l6.44 1.7.2.68c.58 1.9.32 4.25-1.64 6.14l-.52.5c-1.64-.45-3.29-.87-4.94-1.32a11.87 11.87 0 01-2.22 2.82c-1.53 1.46-3.26 2.6-4.86 3.89-3.17 2.56-5.82 5.4-5.57 12.36.15 4.32 3.4 6.15 6.16 5.97a3.97 3.97 0 003.22-1.69c.67-1.04.97-2.67.12-5.16-.74-2.23.4-4.5 2.05-6.06 1.68-1.57 4.08-2.6 6.52-2.05 1.34.29 2.17 1.43 2.6 2.56.43 1.12.65 2.38.93 3.69.55 2.6 1.27 5.19 3.38 6.7 4.08 2.91 8.22 2.44 10.04.89a2.92 2.92 0 001.08-2.97c-.23-1.23-1.22-2.88-3.53-4.62-2.64-2-3.22-5.58-2.98-9a21.24 21.24 0 012.73-9.1c.84-1.35 2.32-1.83 3.94-2.25 1.6-.43 3.49-.75 5.43-1.25 3.88-.99 7.85-2.59 10.23-6.78 1.17-2.07 1.45-3.76 1.25-4.98a3.27 3.27 0 00-1.68-2.5c-1.74-.96-4.8-.57-7.32 2.8-1.84 2.45-5.3 3.58-9.28 3.84-1.2.08-2.48.08-3.77 0l1-.65v-4.19h2.5v2.14c4.23-3.99 7.4-9.98 7.12-16.08 2.43 1.6 4.1 3.64 5.64 6.4a9.64 9.64 0 00-1.09-6.43c2.17.9 3.84 2.3 5.55 3.63a9.17 9.17 0 00-3.95-5.8c2.24.18 3.5.7 5.47 1.71-1.48-3.34-7.4-6.75-13.19-4.72a18.84 18.84 0 00-6.62-1.5zm-4.64 7.29a2.65 2.65 0 012.65 2.65 2.66 2.66 0 11-2.65-2.65zm6 4.43a2.66 2.66 0 11-2.66 2.66c.3-1.52.87-2.62 2.65-2.66zm-10.75 5.46l2.01 1.52-2.81 3.71-2-1.51c.94-1.24 1.88-2.48 2.8-3.72zm3.77 2.26l2.39.76-1.36 4.24-2.38-.77 1.35-4.23zM186.6 33c-2.27 2.7-2.65 5.97-2.41 9.67l4.07-2.3.45-.23.49.12 18.38 4.86c.74-.87.83-1.6.67-2.44l-18.37-4.88-.5-.12-.26-.44c-.83-1.42-1.68-2.83-2.52-4.24zm38.08 14.1c-.34.7-.66 1.51-.93 2.4l12.86 3.4c2.58.33 5.17.5 7.74.8l-6.93-3.06a685.31 685.31 0 00-12.74-3.53z" fill="currentColor"/><g fill="currentColor" stroke-width=".26"><g aria-label="SMALA" fill-opacity=".25"><path d="M46 27.89l-9.32 7.85-.28-.46q-.12-.28-.57-1.01-.45-.74-.9-1.3t-1.07-.96q-.57-.45-1.08-.4-1.13.06-1.01 1.7.11 2.54 2.54 4.34.62.4 1.3.74 1.58.73 2.7 1.35 1.19.62 2.54 1.53 1.42.9 2.32 1.75.9.84 1.75 2.03.85 1.13 1.18 2.37.4 1.18.4 2.77.06 1.52-.4 3.21-.62 2.15-2.14 3.9-1.52 1.7-4.3 2.99-2.76 1.24-6.37 1.52-2.2.17-4 .06-1.81-.11-3.28-.45-1.41-.34-2.54-.74-1.07-.45-1.86-.9-.74-.5-1.24-.9-.46-.4-.68-.68l-.23-.28 4.18-9.94q.06.06.23.17.16.06.62.29l.9.45 1.07.4 1.24.39q.57.17 1.13.28.62.06 1.07 0 .46-.06.8-.28.39-.28.56-.68.11-.56-.28-1.07-.4-.57-1.24-1.07-.8-.51-1.81-1.08-1.02-.62-2.2-1.4-1.13-.86-2.15-1.76-1.01-.96-1.92-2.37-.84-1.41-1.18-3.05-.51-2.31-.4-4.51.12-2.2.9-3.95.85-1.75 2.04-3.22Q24.2 24 25.9 23.09q1.69-.96 3.55-1.47 1.87-.5 4.01-.33 2.15.1 4.23.79 2.1.67 4.24 2.2 2.2 1.46 4.06 3.61zM60.55 60.23l-12.75.9.79-38.66 13.26.17 6.6 12.59 4.63-12.76 14.12-.45 4.51 38.66-12.3-.22-1.47-20.55-4.35 14.06-8.13.5-5.53-13.26zM105.48 62.26l-13.77-1.35 7.79-38.55 17.55-.17 10.16 39.4-12.58 1.13-2.2-7.96-6.21.56zm1.64-15.3l3.16-.33-2.2-8.07zM127.5 23.37l13.6-.22-.23 22.63 10.28-.5.05 14.1-22.52 1.81zM164.8 62.26l-13.77-1.35 7.8-38.55 17.55-.17 10.16 39.4-12.59 1.13-2.2-7.96-6.21.56zm1.64-15.3l3.16-.33-2.2-8.07z"/></g><g aria-label="SMALA"><path d="M46 25.77l-9.32 7.85-.28-.45q-.12-.28-.57-1.02-.45-.73-.9-1.3-.45-.56-1.07-.96-.57-.45-1.08-.4-1.13.06-1.01 1.7.11 2.54 2.54 4.35.62.4 1.3.73 1.58.74 2.7 1.36 1.19.62 2.54 1.52 1.42.9 2.32 1.75.9.85 1.75 2.03.85 1.13 1.18 2.37.4 1.19.4 2.77.06 1.52-.4 3.22-.62 2.14-2.14 3.9-1.52 1.68-4.3 2.98-2.76 1.24-6.37 1.53-2.2.17-4 .05-1.81-.11-3.28-.45-1.41-.34-2.54-.73-1.07-.45-1.86-.9-.74-.51-1.24-.9-.46-.4-.68-.69l-.23-.28 4.18-9.93.23.17q.16.05.62.28l.9.45 1.07.4 1.24.4q.57.16 1.13.27.62.06 1.07 0 .46-.05.8-.28.39-.28.56-.68.11-.56-.28-1.07-.4-.56-1.24-1.07-.8-.5-1.81-1.07-1.02-.62-2.2-1.42-1.13-.84-2.15-1.74-1.01-.96-1.92-2.38-.84-1.4-1.18-3.04-.51-2.32-.4-4.52.12-2.2.9-3.95.85-1.75 2.04-3.22 1.18-1.52 2.88-2.42 1.69-.96 3.55-1.47 1.87-.51 4.01-.34 2.15.11 4.23.79 2.1.68 4.24 2.2 2.2 1.47 4.06 3.61zM60.55 58.12l-12.75.9.79-38.67 13.26.17 6.6 12.6 4.63-12.77 14.12-.45 4.51 38.67-12.3-.23-1.47-20.54-4.35 14.05-8.13.5-5.53-13.26zM105.48 60.15l-13.77-1.36 7.79-38.55 17.55-.17 10.16 39.4-12.58 1.13-2.2-7.96-6.21.57zm1.64-15.3l3.16-.34-2.2-8.07zM127.5 21.26l13.6-.23-.23 22.64 10.28-.51.05 14.1-22.52 1.82zM164.8 60.15l-13.77-1.36 7.8-38.55 17.55-.17 10.16 39.4-12.59 1.13-2.2-7.96-6.21.57zm1.64-15.3l3.16-.34-2.2-8.07z" style="-inkscape-font-specification:'JIMMY BOYZ'"/></g></g><path fill="none" stroke="currentColor" stroke-width="3.73" d="M1.86 1.86h250v76h-250z"/></svg>